<svg version="1.1" xmlns="http://www.w3.org/2000/svg" viewBox="0 0 708.109375 67.5" width="708.109375" height="67.5" class="excalidraw-svg"><!-- svg-source:excalidraw --><metadata></metadata><defs><style class="style-fonts">
      </style></defs><rect x="0" y="0" width="708.109375" height="67.5" fill="#ffffff"></rect><g stroke-linecap="round" transform="translate(10 10) rotate(0 10.9765625 23.75)"><path d="M0 0 C8.03 0, 16.05 0, 21.95 0 M0 0 C6.76 0, 13.52 0, 21.95 0 M21.95 0 C21.95 14.23, 21.95 28.45, 21.95 47.5 M21.95 0 C21.95 16.6, 21.95 33.21, 21.95 47.5 M21.95 47.5 C17.21 47.5, 12.47 47.5, 0 47.5 M21.95 47.5 C14.72 47.5, 7.49 47.5, 0 47.5 M0 47.5 C0 35.48, 0 23.46, 0 0 M0 47.5 C0 35.24, 0 22.98, 0 0" stroke="#1e1e1e" stroke-width="1" fill="none"></path></g><g transform="translate(18.1982421875 22.25) rotate(0 2.7783203125 11.5)"><text x="2.7783203125" y="16.900390625" font-family="Helvetica, sans-serif, Segoe UI Emoji" font-size="20px" fill="#1e1e1e" text-anchor="middle" style="white-space: pre;" direction="ltr" dominant-baseline="alphabetic">/</text></g><g stroke-linecap="round" transform="translate(81.953125 10) rotate(0 90.890625 23.75)"><path d="M0 0 C62.54 0, 125.07 0, 181.78 0 M0 0 C69.32 0, 138.64 0, 181.78 0 M181.78 0 C181.78 15.6, 181.78 31.19, 181.78 47.5 M181.78 0 C181.78 17.62, 181.78 35.24, 181.78 47.5 M181.78 47.5 C113.22 47.5, 44.65 47.5, 0 47.5 M181.78 47.5 C126.07 47.5, 70.35 47.5, 0 47.5 M0 47.5 C0 28.89, 0 10.27, 0 0 M0 47.5 C0 34.39, 0 21.29, 0 0" stroke="#1e1e1e" stroke-width="1" fill="none"></path></g><g transform="translate(106.134765625 22.25) rotate(0 66.708984375 11.5)"><text x="66.708984375" y="16.900390625" font-family="Helvetica, sans-serif, Segoe UI Emoji" font-size="20px" fill="#1e1e1e" text-anchor="middle" style="white-space: pre;" direction="ltr" dominant-baseline="alphabetic">departamentos</text></g><g stroke-linecap="round" transform="translate(313.734375 10) rotate(0 81.171875 23.75)"><path d="M0 0 C52.58 0, 105.16 0, 162.34 0 M0 0 C32.72 0, 65.45 0, 162.34 0 M162.34 0 C162.34 14.94, 162.34 29.88, 162.34 47.5 M162.34 0 C162.34 10.65, 162.34 21.31, 162.34 47.5 M162.34 47.5 C107.11 47.5, 51.88 47.5, 0 47.5 M162.34 47.5 C122.35 47.5, 82.35 47.5, 0 47.5 M0 47.5 C0 35.79, 0 24.08, 0 0 M0 47.5 C0 30.78, 0 14.05, 0 0" stroke="#1e1e1e" stroke-width="1" fill="none"></path></g><g transform="translate(335.970703125 22.25) rotate(0 58.935546875 11.5)"><text x="58.935546875" y="16.900390625" font-family="Helvetica, sans-serif, Segoe UI Emoji" font-size="20px" fill="#1e1e1e" text-anchor="middle" style="white-space: pre;" direction="ltr" dominant-baseline="alphabetic">contabilidade</text></g><g stroke-linecap="round" transform="translate(526.078125 10) rotate(0 86.015625 23.75)"><path d="M0 0 C64.5 0, 129 0, 172.03 0 M0 0 C35.92 0, 71.83 0, 172.03 0 M172.03 0 C172.03 15.46, 172.03 30.91, 172.03 47.5 M172.03 0 C172.03 11.53, 172.03 23.06, 172.03 47.5 M172.03 47.5 C113.8 47.5, 55.57 47.5, 0 47.5 M172.03 47.5 C119.28 47.5, 66.53 47.5, 0 47.5 M0 47.5 C0 29.19, 0 10.87, 0 0 M0 47.5 C0 28.51, 0 9.52, 0 0" stroke="#1e1e1e" stroke-width="1" fill="none"></path></g><g transform="translate(549.28125 22.25) rotate(0 62.8125 11.5)"><text x="62.8125" y="16.900390625" font-family="Helvetica, sans-serif, Segoe UI Emoji" font-size="20px" fill="#1e1e1e" text-anchor="middle" style="white-space: pre;" direction="ltr" dominant-baseline="alphabetic">compartilhado</text></g><g stroke-linecap="round"><g transform="translate(32.953125 33.75) rotate(0 21.84993750000001 0)"><path d="M0 0 C10.76 0, 21.51 0, 43.7 0 M0 0 C10.85 0, 21.7 0, 43.7 0" stroke="#1e1e1e" stroke-width="1" fill="none"></path></g><g transform="translate(32.953125 33.75) rotate(0 21.84993750000001 0)"><path d="M23.17 7.47 C28.22 5.63, 33.27 3.79, 43.7 0 M23.17 7.47 C28.27 5.62, 33.36 3.76, 43.7 0" stroke="#1e1e1e" stroke-width="1" fill="none"></path></g><g transform="translate(32.953125 33.75) rotate(0 21.84993750000001 0)"><path d="M23.17 -7.47 C28.22 -5.63, 33.27 -3.79, 43.7 0 M23.17 -7.47 C28.27 -5.62, 33.36 -3.76, 43.7 0" stroke="#1e1e1e" stroke-width="1" fill="none"></path></g></g><mask></mask><g stroke-linecap="round"><g transform="translate(264.734375 33.75) rotate(0 21.849812500000013 0)"><path d="M0 0 C10.23 0, 20.46 0, 43.7 0 M0 0 C8.83 0, 17.65 0, 43.7 0" stroke="#1e1e1e" stroke-width="1" fill="none"></path></g><g transform="translate(264.734375 33.75) rotate(0 21.849812500000013 0)"><path d="M23.17 7.47 C27.98 5.72, 32.78 3.97, 43.7 0 M23.17 7.47 C27.31 5.96, 31.46 4.45, 43.7 0" stroke="#1e1e1e" stroke-width="1" fill="none"></path></g><g transform="translate(264.734375 33.75) rotate(0 21.849812500000013 0)"><path d="M23.17 -7.47 C27.98 -5.72, 32.78 -3.97, 43.7 0 M23.17 -7.47 C27.31 -5.96, 31.46 -4.45, 43.7 0" stroke="#1e1e1e" stroke-width="1" fill="none"></path></g></g><mask></mask><g stroke-linecap="round"><g transform="translate(477.078125 33.75) rotate(0 21.849937500000017 0)"><path d="M0 0 C11.03 0, 22.06 0, 43.7 0 M0 0 C9.59 0, 19.19 0, 43.7 0" stroke="#1e1e1e" stroke-width="1" fill="none"></path></g><g transform="translate(477.078125 33.75) rotate(0 21.849937500000017 0)"><path d="M23.17 7.47 C28.35 5.59, 33.53 3.7, 43.7 0 M23.17 7.47 C27.67 5.83, 32.18 4.19, 43.7 0" stroke="#1e1e1e" stroke-width="1" fill="none"></path></g><g transform="translate(477.078125 33.75) rotate(0 21.849937500000017 0)"><path d="M23.17 -7.47 C28.35 -5.59, 33.53 -3.7, 43.7 0 M23.17 -7.47 C27.67 -5.83, 32.18 -4.19, 43.7 0" stroke="#1e1e1e" stroke-width="1" fill="none"></path></g></g><mask></mask></svg>